# xmcd CD database file
#
# Track frame offsets:
#	150
#	19260
#	31897
#	49782
#	68686
#	92853
#	108533
#	131249
#	146658
#	171620
#	181268
#	192329
#	200791
#	213992
#	230900
#	257360
#	267718
#	277974
#	290148
#	304216
#
# Disc length: 4252 seconds
#
# Revision: 0
# Processed by: cddbd v1.5.2PL0 Copyright (c) Steve Scherf et al.
# Submitted via: CDex 1.85
#
DISCID=46109a14
DTITLE=Ella Fitzgerald - Songbooks [CD2]
DYEAR=2012
DGENRE=Jazz
TTITLE0=It Don't Mean A Thing (If It Ain't Got That Swing)
TTITLE1=In A Sentimental Mood
TTITLE2=Rocks In My Bed
TTITLE3=I Let A Song Go Out Of My Heart
TTITLE4=Sophisticated Lady
TTITLE5=Satin Doll
TTITLE6=Don't Get Around Much Anymore
TTITLE7=Cottontail
TTITLE8=Prelude To A Kiss
TTITLE9=Solitude
TTITLE10=All By Myself
TTITLE11=Russian Lullaby
TTITLE12=Let's Face The Music And Dance
TTITLE13=Blue Skies
TTITLE14=Cheek To Cheek
TTITLE15=Between The Devil And The Deep Blue Sea
TTITLE16=Puttin' On The Ritz
TTITLE17=Alexander's Ragtime Band
TTITLE18=Always
TTITLE19=Change Partners
EXTD=YEAR: 2012
EXTT0=
EXTT1=
EXTT2=
EXTT3=
EXTT4=
EXTT5=
EXTT6=
EXTT7=
EXTT8=
EXTT9=
EXTT10=
EXTT11=
EXTT12=
EXTT13=
EXTT14=
EXTT15=
EXTT16=
EXTT17=
EXTT18=
EXTT19=
PLAYORDER=
